<svg width="12" height="12" viewBox="0 0 12 12" fill="none" xmlns="http://www.w3.org/2000/svg">
<path fill-rule="evenodd" clip-rule="evenodd" d="M0.712912 0.306909C0.624453 0.343509 0.541577 0.397763 0.46967 0.46967C0.323223 0.616117 0.25 0.808058 0.25 1V10C0.25 10.4142 0.585786 10.75 1 10.75C1.41421 10.75 1.75 10.4142 1.75 10V2.81066L10.4697 11.5303C10.7626 11.8232 11.2374 11.8232 11.5303 11.5303C11.8232 11.2374 11.8232 10.7626 11.5303 10.4697L2.81066 1.75H10C10.4142 1.75 10.75 1.41421 10.75 1C10.75 0.585786 10.4142 0.25 10 0.25H1C0.898308 0.25 0.801342 0.270239 0.712912 0.306909Z" fill="#6A6D71"/>
</svg>
