<svg width="25" height="24" viewBox="0 0 25 24" fill="none" xmlns="http://www.w3.org/2000/svg">
<g clip-path="url(#clip0_624_1941)">
<path fill-rule="evenodd" clip-rule="evenodd" d="M18.7139 6.53033C19.0068 6.23744 19.0068 5.76256 18.7139 5.46967C18.421 5.17678 17.9462 5.17678 17.6533 5.46967L12.1836 10.9393L6.71392 5.46967C6.42103 5.17678 5.94616 5.17678 5.65326 5.46967C5.36037 5.76256 5.36037 6.23744 5.65326 6.53033L11.1229 12L5.65326 17.4697C5.36037 17.7626 5.36037 18.2374 5.65326 18.5303C5.94616 18.8232 6.42103 18.8232 6.71392 18.5303L12.1836 13.0607L17.6533 18.5303C17.9462 18.8232 18.421 18.8232 18.7139 18.5303C19.0068 18.2374 19.0068 17.7626 18.7139 17.4697L13.2443 12L18.7139 6.53033Z" fill="#C61826"/>
</g>
<defs>
<clipPath id="clip0_624_1941">
<rect width="24" height="24" fill="white" transform="translate(0.183594)"/>
</clipPath>
</defs>
</svg>
