<svg width="31" height="22" viewBox="0 0 31 22" fill="none" xmlns="http://www.w3.org/2000/svg">
<path d="M0.347529 21.5C0.238239 20.8027 0.183594 20.1054 0.183594 19.408C0.183594 18.7107 0.183594 18.1475 0.183594 17.7184C0.292883 14.5 0.921299 11.4157 2.06884 8.46552C3.27103 5.51532 4.71911 2.86015 6.4131 0.5L13.7082 2.43103C12.6153 4.79119 11.7683 7.28544 11.1672 9.91379C10.5661 12.5421 10.2656 15.0364 10.2656 17.3966C10.2656 17.8257 10.2656 18.4425 10.2656 19.2471C10.2656 20.0517 10.3202 20.8027 10.4295 21.5H0.347529ZM16.8229 21.5C16.7136 20.8027 16.659 20.1054 16.659 19.408C16.659 18.7107 16.659 18.1475 16.659 17.7184C16.7683 14.5 17.3967 11.4157 18.5443 8.46552C19.7464 5.51532 21.1945 2.86015 22.8885 0.5L30.1836 2.43103C29.0907 4.79119 28.2437 7.28544 27.6426 9.91379C27.0415 12.5421 26.741 15.0364 26.741 17.3966C26.741 17.8257 26.741 18.4425 26.741 19.2471C26.741 20.0517 26.7956 20.8027 26.9049 21.5H16.8229Z" fill="#C61826"/>
</svg>
