<svg width="20" height="24" viewBox="0 0 20 24" fill="none" xmlns="http://www.w3.org/2000/svg">
<path d="M8.59391 0.973203C8.46677 0.97519 8.34561 1.02754 8.25702 1.11876C8.16844 1.20998 8.11967 1.33262 8.12141 1.45977V4.33977C8.12051 4.40337 8.13226 4.46652 8.15598 4.52555C8.1797 4.58457 8.21491 4.63829 8.25957 4.68359C8.30423 4.72889 8.35745 4.76486 8.41613 4.78941C8.47482 4.81396 8.53779 4.8266 8.60141 4.8266C8.66502 4.8266 8.728 4.81396 8.78668 4.78941C8.84536 4.76486 8.89858 4.72889 8.94324 4.68359C8.9879 4.63829 9.02312 4.58457 9.04684 4.52555C9.07055 4.46652 9.08231 4.40337 9.08141 4.33977V1.45977C9.08229 1.39555 9.07027 1.3318 9.04607 1.27231C9.02187 1.21282 8.98598 1.15879 8.94052 1.11342C8.89506 1.06805 8.84096 1.03226 8.78143 1.00818C8.72189 0.984093 8.65812 0.9722 8.59391 0.973203ZM4.27672 2.41508C4.18123 2.4151 4.08792 2.44361 4.00871 2.49694C3.92951 2.55027 3.86801 2.62602 3.83208 2.71449C3.79615 2.80296 3.78742 2.90013 3.807 2.99359C3.82659 3.08705 3.8736 3.17254 3.94203 3.23914L5.86203 5.15914C5.90626 5.20521 5.95924 5.24199 6.01786 5.26732C6.07648 5.29266 6.13957 5.30605 6.20343 5.30669C6.26729 5.30734 6.33064 5.29525 6.38976 5.27111C6.44889 5.24697 6.5026 5.21128 6.54776 5.16612C6.59292 5.12096 6.62861 5.06725 6.65275 5.00812C6.67689 4.94899 6.68899 4.88565 6.68834 4.82179C6.68769 4.75793 6.6743 4.69484 6.64896 4.63622C6.62363 4.5776 6.58685 4.52462 6.54078 4.48039L4.62078 2.56039C4.57605 2.51441 4.52256 2.47786 4.46346 2.4529C4.40437 2.42794 4.34087 2.41508 4.27672 2.41508ZM12.912 2.41508C12.7873 2.41879 12.669 2.47091 12.582 2.56039L10.662 4.48039C10.616 4.52462 10.5792 4.5776 10.5538 4.63622C10.5285 4.69484 10.5151 4.75793 10.5145 4.82179C10.5138 4.88565 10.5259 4.94899 10.5501 5.00812C10.5742 5.06725 10.6099 5.12096 10.6551 5.16612C10.7002 5.21128 10.7539 5.24697 10.8131 5.27111C10.8722 5.29525 10.9355 5.30734 10.9994 5.30669C11.0632 5.30605 11.1263 5.29266 11.185 5.26732C11.2436 5.24199 11.2966 5.20521 11.3408 5.15914L13.2608 3.23914C13.3301 3.17172 13.3775 3.08491 13.3967 2.99011C13.4159 2.8953 13.406 2.7969 13.3683 2.70782C13.3306 2.61874 13.2668 2.54313 13.1854 2.49089C13.104 2.43865 13.0087 2.41223 12.912 2.41508ZM17.8039 3.37977C17.4565 3.37977 17.1091 3.51207 16.8439 3.77727L8.20391 12.4173L7.64141 12.9798C7.64141 12.9798 6.23761 10.3371 5.53297 9.63195C4.30561 8.40507 1.92937 7.80462 1.30297 8.43102L0.441406 9.29258L3.15641 12.0076L5.24141 18.2598L9.01016 22.0285C10.3748 23.3932 12.588 23.3932 13.9527 22.0285L14.9239 21.0573L19.2439 16.7373C19.7743 16.2069 19.7743 15.3477 19.2439 14.8173C18.7135 14.2869 17.8543 14.2869 17.3239 14.8173L17.8039 14.3373C18.3343 13.8069 18.3343 12.9477 17.8039 12.4173C17.2735 11.8869 16.4143 11.8869 15.8839 12.4173L16.3639 11.9373C16.8943 11.4069 16.8943 10.5477 16.3639 10.0173C15.8335 9.48687 14.9743 9.48687 14.4439 10.0173L18.7639 5.69727C19.2943 5.16687 19.2943 4.30767 18.7639 3.77727C18.4987 3.51207 18.1513 3.37977 17.8039 3.37977Z" fill="#1A1A1A"/>
</svg>
