<svg width="26" height="25" viewBox="0 0 26 25" fill="none" xmlns="http://www.w3.org/2000/svg">
<path fill-rule="evenodd" clip-rule="evenodd" d="M18.4765 1.2932C19.1945 0.575226 20.1682 0.171875 21.1836 0.171875C22.199 0.171875 23.1727 0.575226 23.8907 1.2932C24.6087 2.01116 25.012 2.98494 25.012 4.0003C25.012 5.01566 24.6087 5.98944 23.8907 6.70741L21.8949 8.70324C21.8935 8.70464 21.8921 8.70604 21.8907 8.70743C21.8893 8.70883 21.8879 8.71022 21.8865 8.7116L12.5574 18.0407C12.3698 18.2283 12.1155 18.3336 11.8503 18.3336H7.85026C7.29798 18.3336 6.85026 17.8859 6.85026 17.3336V13.3336C6.85026 13.0684 6.95562 12.8141 7.14315 12.6265L16.4765 3.29322L18.4765 1.2932ZM17.1836 5.41453L8.85026 13.7478V16.3336H11.436L19.7694 8.00032L17.1836 5.41453ZM21.1836 6.5861L18.5978 4.00031L19.8907 2.70741C20.2336 2.36451 20.6987 2.17188 21.1836 2.17188C21.6685 2.17188 22.1336 2.36451 22.4765 2.70741C22.8194 3.05031 23.012 3.51537 23.012 4.0003C23.012 4.48523 22.8194 4.9503 22.4765 5.2932L21.1836 6.5861ZM1.25754 6.74093C1.94517 6.0533 2.8778 5.66699 3.85026 5.66699H7.85026C8.40255 5.66699 8.85026 6.11471 8.85026 6.66699C8.85026 7.21928 8.40255 7.66699 7.85026 7.66699H3.85026C3.40823 7.66699 2.98431 7.84259 2.67175 8.15515C2.35919 8.46771 2.18359 8.89163 2.18359 9.33366V21.3337C2.18359 21.7757 2.35919 22.1996 2.67175 22.5122C2.98431 22.8247 3.40823 23.0003 3.85026 23.0003H15.8503C16.2923 23.0003 16.7162 22.8247 17.0288 22.5122C17.3413 22.1996 17.5169 21.7757 17.5169 21.3337V17.3337C17.5169 16.7814 17.9646 16.3337 18.5169 16.3337C19.0692 16.3337 19.5169 16.7814 19.5169 17.3337V21.3337C19.5169 22.3061 19.1306 23.2388 18.443 23.9264C17.7554 24.614 16.8227 25.0003 15.8503 25.0003H3.85026C2.8778 25.0003 1.94517 24.614 1.25754 23.9264C0.569902 23.2388 0.183594 22.3061 0.183594 21.3337V9.33366C0.183594 8.3612 0.569902 7.42857 1.25754 6.74093Z" fill="#6A6D71"/>
</svg>
