<svg width="33" height="32" viewBox="0 0 33 32" fill="none" xmlns="http://www.w3.org/2000/svg">
<g clip-path="url(#clip0_414_11925)">
<path fill-rule="evenodd" clip-rule="evenodd" d="M16.5563 5.73852C16.3179 5.64315 16.0519 5.64315 15.8135 5.73852L2.48017 11.0718C2.10051 11.2237 1.85156 11.5914 1.85156 12.0003C1.85156 12.4092 2.10051 12.7769 2.48017 12.9288L7.1849 14.8107V21.3338C7.1849 22.9653 8.45662 24.2445 10.0808 25.0566C11.7518 25.8921 13.9479 26.3338 16.1849 26.3338C18.4219 26.3338 20.618 25.8921 22.289 25.0566C23.9132 24.2445 25.1849 22.9653 25.1849 21.3338V14.8107L28.5182 13.4774V20.0003C28.5182 20.5526 28.9659 21.0003 29.5182 21.0003C30.0705 21.0003 30.5182 20.5526 30.5182 20.0003V12.0003C30.5182 11.5914 30.2693 11.2237 29.8896 11.0718L16.5563 5.73852ZM23.8295 13.1988C23.8189 13.2028 23.8084 13.207 23.798 13.2114L16.1849 16.2566L8.57178 13.2114C8.56138 13.207 8.55089 13.2028 8.54031 13.1988L5.54415 12.0003L16.1849 7.74403L26.8256 12.0003L23.8295 13.1988ZM9.1849 15.6107L15.8135 18.2621C16.0519 18.3575 16.3179 18.3575 16.5563 18.2621L23.1849 15.6107V21.3338C23.1849 21.8241 22.7709 22.5796 21.3945 23.2678C20.0649 23.9326 18.1914 24.3338 16.1849 24.3338C14.1784 24.3338 12.3048 23.9326 10.9753 23.2678C9.59888 22.5796 9.1849 21.8241 9.1849 21.3338V15.6107Z" fill="white"/>
</g>
<defs>
<clipPath id="clip0_414_11925">
<rect width="32" height="32" fill="white" transform="translate(0.183594)"/>
</clipPath>
</defs>
</svg>
