<svg width="20" height="16" viewBox="0 0 20 16" fill="none" xmlns="http://www.w3.org/2000/svg">
<path fill-rule="evenodd" clip-rule="evenodd" d="M1.98788 2.6347C2.14413 2.12256 2.62039 1.75 3.18365 1.75H17.1837C17.7469 1.75 18.2232 2.12257 18.3794 2.63473L10.1837 8.09857L1.98788 2.6347ZM0.433681 2.9878C0.433574 2.99482 0.433565 3.00183 0.433655 3.00884V13C0.433655 14.5188 1.66487 15.75 3.18365 15.75H17.1837C18.7024 15.75 19.9337 14.5188 19.9337 13V3.01143M18.4337 4.40136V13C18.4337 13.6904 17.874 14.25 17.1837 14.25H3.18365C2.4933 14.25 1.93365 13.6904 1.93365 13V4.40133L9.76765 9.62399C10.0196 9.79194 10.3478 9.79194 10.5997 9.62399L18.4337 4.40136ZM19.9336 2.98479C19.9254 1.473 18.6974 0.25 17.1837 0.25H3.18365C1.66894 0.25 0.440253 1.47463 0.433681 2.9878" fill="white"/>
</svg>
