<svg width="17" height="16" viewBox="0 0 17 16" fill="none" xmlns="http://www.w3.org/2000/svg">
<g clip-path="url(#clip0_442_7982)">
<path d="M13.3762 14.6666H7.49191L6.9802 12.7632C5.18889 12.7632 4.42133 12.9956 3.39792 9.66459C3.39792 9.66459 1.60729 9.18873 2.37485 8.237C3.14241 7.28528 3.90997 6.33906 3.90997 6.33906C3.90997 6.33906 3.65411 1.58045 8.51532 1.34252C13.3765 1.10459 14.1376 5.39461 13.8503 6.99987C13.5629 8.60513 12.3531 11.5735 12.3531 11.5735L13.3762 14.6666Z" stroke="#C61826" strokeLinejoin="round"/>
<path d="M6.18359 5.6531C6.26825 5.01001 6.58537 4.41969 7.0756 3.99264C7.56583 3.56559 8.19556 3.33108 8.84691 3.33302C9.49825 3.33496 10.1266 3.57321 10.6142 4.00317C11.1019 4.43314 11.4155 5.02534 11.4962 5.66891C11.577 6.31249 11.4195 6.96333 11.0531 7.49959C10.6868 8.03586 10.1367 8.42078 9.50586 8.58231C8.87504 8.74384 8.20671 8.67091 7.626 8.37716C7.04529 8.08341 6.59199 7.58898 6.35097 6.98643M6.18359 8.65309V6.98643H7.85736" stroke="#C61826" strokeLinecap="round" strokeLinejoin="round"/>
</g>
<defs>
<clipPath id="clip0_442_7982">
<rect width="16" height="16" fill="white" transform="translate(0.183594)"/>
</clipPath>
</defs>
</svg>
