<svg width="25" height="24" viewBox="0 0 25 24" fill="none" xmlns="http://www.w3.org/2000/svg">
<g clip-path="url(#clip0_442_1926)">
<path fill-rule="evenodd" clip-rule="evenodd" d="M14.1836 4.75C13.4932 4.75 12.9336 5.30964 12.9336 6C12.9336 6.69036 13.4932 7.25 14.1836 7.25C14.874 7.25 15.4336 6.69036 15.4336 6C15.4336 5.30964 14.874 4.75 14.1836 4.75ZM16.8301 5.25C16.5036 4.09575 15.4424 3.25 14.1836 3.25C12.9248 3.25 11.8636 4.09575 11.5371 5.25H4.18359C3.76938 5.25 3.43359 5.58579 3.43359 6C3.43359 6.41421 3.76938 6.75 4.18359 6.75H11.5371C11.8636 7.90425 12.9248 8.75 14.1836 8.75C15.4424 8.75 16.5036 7.90425 16.8301 6.75H20.1836C20.5978 6.75 20.9336 6.41421 20.9336 6C20.9336 5.58579 20.5978 5.25 20.1836 5.25H16.8301ZM8.18359 10.75C7.49324 10.75 6.93359 11.3096 6.93359 12C6.93359 12.6904 7.49324 13.25 8.18359 13.25C8.87395 13.25 9.43359 12.6904 9.43359 12C9.43359 11.3096 8.87395 10.75 8.18359 10.75ZM8.18359 9.25C9.44237 9.25 10.5036 10.0957 10.8301 11.25H20.1836C20.5978 11.25 20.9336 11.5858 20.9336 12C20.9336 12.4142 20.5978 12.75 20.1836 12.75H10.8301C10.5036 13.9043 9.44237 14.75 8.18359 14.75C6.92482 14.75 5.86357 13.9043 5.53711 12.75H4.18359C3.76938 12.75 3.43359 12.4142 3.43359 12C3.43359 11.5858 3.76938 11.25 4.18359 11.25H5.53711C5.86357 10.0957 6.92482 9.25 8.18359 9.25ZM15.9336 18C15.9336 17.3096 16.4932 16.75 17.1836 16.75C17.874 16.75 18.4336 17.3096 18.4336 18C18.4336 18.6904 17.874 19.25 17.1836 19.25C16.4932 19.25 15.9336 18.6904 15.9336 18ZM19.8301 17.25C19.5036 16.0957 18.4424 15.25 17.1836 15.25C15.9248 15.25 14.8636 16.0957 14.5371 17.25H4.18359C3.76938 17.25 3.43359 17.5858 3.43359 18C3.43359 18.4142 3.76938 18.75 4.18359 18.75H14.5371C14.8636 19.9043 15.9248 20.75 17.1836 20.75C18.4424 20.75 19.5036 19.9043 19.8301 18.75H20.1836C20.5978 18.75 20.9336 18.4142 20.9336 18C20.9336 17.5858 20.5978 17.25 20.1836 17.25H19.8301Z" fill="white"/>
</g>
<defs>
<clipPath id="clip0_442_1926">
<rect width="24" height="24" fill="white" transform="translate(0.183594)"/>
</clipPath>
</defs>
</svg>
