<svg width="30" height="22" viewBox="0 0 30 22" fill="none" xmlns="http://www.w3.org/2000/svg">
<path fill-rule="evenodd" clip-rule="evenodd" d="M15.5563 0.738516C15.3179 0.643151 15.0519 0.643151 14.8135 0.738516L1.48017 6.07185C1.10051 6.22371 0.851562 6.59142 0.851562 7.00033C0.851562 7.40923 1.10051 7.77694 1.48017 7.9288L6.1849 9.81069V16.3338C6.1849 17.9653 7.45662 19.2445 9.08083 20.0566C10.7518 20.8921 12.9479 21.3338 15.1849 21.3338C17.4219 21.3338 19.618 20.8921 21.289 20.0566C22.9132 19.2445 24.1849 17.9653 24.1849 16.3338V9.81069L27.5182 8.47736V15.0003C27.5182 15.5526 27.9659 16.0003 28.5182 16.0003C29.0705 16.0003 29.5182 15.5526 29.5182 15.0003V7.00033C29.5182 6.59142 29.2693 6.22371 28.8896 6.07185L15.5563 0.738516ZM22.8295 8.19879C22.8189 8.20281 22.8084 8.20701 22.798 8.21138L15.1849 11.2566L7.57178 8.21138C7.56138 8.20701 7.55089 8.20281 7.54031 8.19879L4.54415 7.00033L15.1849 2.74403L25.8256 7.00033L22.8295 8.19879ZM8.1849 10.6107L14.8135 13.2621C15.0519 13.3575 15.3179 13.3575 15.5563 13.2621L22.1849 10.6107V16.3338C22.1849 16.8241 21.7709 17.5796 20.3945 18.2678C19.0649 18.9326 17.1914 19.3338 15.1849 19.3338C13.1784 19.3338 11.3048 18.9326 9.97526 18.2678C8.59888 17.5796 8.1849 16.8241 8.1849 16.3338V10.6107Z" fill="white"/>
</svg>
