<svg width="24" height="24" viewBox="0 0 24 24" fill="none" xmlns="http://www.w3.org/2000/svg">
<g clip-path="url(#clip0_442_2210)">
<path fill-rule="evenodd" clip-rule="evenodd" d="M5 3.25C4.27065 3.25 3.57118 3.53973 3.05546 4.05546C2.53973 4.57118 2.25 5.27065 2.25 6V18C2.25 18.7293 2.53973 19.4288 3.05546 19.9445C3.57118 20.4603 4.27065 20.75 5 20.75H12C12.7293 20.75 13.4288 20.4603 13.9445 19.9445C14.4603 19.4288 14.75 18.7293 14.75 18V16C14.75 15.5858 14.4142 15.25 14 15.25C13.5858 15.25 13.25 15.5858 13.25 16V18C13.25 18.3315 13.1183 18.6495 12.8839 18.8839C12.6495 19.1183 12.3315 19.25 12 19.25H5C4.66848 19.25 4.35054 19.1183 4.11612 18.8839C3.8817 18.6495 3.75 18.3315 3.75 18V6C3.75 5.66848 3.8817 5.35054 4.11612 5.11612C4.35054 4.8817 4.66848 4.75 5 4.75H12C12.3315 4.75 12.6495 4.8817 12.8839 5.11612C13.1183 5.35054 13.25 5.66848 13.25 6V8C13.25 8.41421 13.5858 8.75 14 8.75C14.4142 8.75 14.75 8.41421 14.75 8V6C14.75 5.27065 14.4603 4.57118 13.9445 4.05546C13.4288 3.53973 12.7293 3.25 12 3.25H5ZM10.5303 9.53033C10.8232 9.23744 10.8232 8.76256 10.5303 8.46967C10.2374 8.17678 9.76256 8.17678 9.46967 8.46967L6.46967 11.4697C6.17678 11.7626 6.17678 12.2374 6.46967 12.5303L9.46967 15.5303C9.76256 15.8232 10.2374 15.8232 10.5303 15.5303C10.8232 15.2374 10.8232 14.7626 10.5303 14.4697L8.81066 12.75H20C20.4142 12.75 20.75 12.4142 20.75 12C20.75 11.5858 20.4142 11.25 20 11.25H8.81066L10.5303 9.53033Z" fill="#1A1A1A"/>
</g>
<defs>
<clipPath id="clip0_442_2210">
<rect width="24" height="24" fill="white"/>
</clipPath>
</defs>
</svg>
