<svg width="101" height="20" viewBox="0 0 101 20" fill="none" xmlns="http://www.w3.org/2000/svg">
<path d="M8.96 1.64H12.08V15.5H8.96V9.62H3.72V15.5H0.6V1.64H3.72V6.94H8.96V1.64ZM14.5875 10.32C14.5875 9.38667 14.7275 8.57333 15.0075 7.88C15.3008 7.17333 15.6808 6.58667 16.1475 6.12C16.6142 5.65333 17.1475 5.3 17.7475 5.06C18.3608 4.82 18.9875 4.7 19.6275 4.7C21.1208 4.7 22.3008 5.16 23.1675 6.08C24.0342 6.98667 24.4675 8.32667 24.4675 10.1C24.4675 10.2733 24.4608 10.4667 24.4475 10.68C24.4342 10.88 24.4208 11.06 24.4075 11.22H17.6475C17.7142 11.8333 18.0008 12.32 18.5075 12.68C19.0142 13.04 19.6942 13.22 20.5475 13.22C21.0942 13.22 21.6275 13.1733 22.1475 13.08C22.6808 12.9733 23.1142 12.8467 23.4475 12.7L23.8475 15.12C23.6875 15.2 23.4742 15.28 23.2075 15.36C22.9408 15.44 22.6408 15.5067 22.3075 15.56C21.9875 15.6267 21.6408 15.68 21.2675 15.72C20.8942 15.76 20.5208 15.78 20.1475 15.78C19.2008 15.78 18.3742 15.64 17.6675 15.36C16.9742 15.08 16.3942 14.7 15.9275 14.22C15.4742 13.7267 15.1342 13.1467 14.9075 12.48C14.6942 11.8133 14.5875 11.0933 14.5875 10.32ZM21.5875 9.18C21.5742 8.92667 21.5275 8.68 21.4475 8.44C21.3808 8.2 21.2675 7.98667 21.1075 7.8C20.9608 7.61333 20.7675 7.46 20.5275 7.34C20.3008 7.22 20.0142 7.16 19.6675 7.16C19.3342 7.16 19.0475 7.22 18.8075 7.34C18.5675 7.44667 18.3675 7.59333 18.2075 7.78C18.0475 7.96667 17.9208 8.18667 17.8275 8.44C17.7475 8.68 17.6875 8.92667 17.6475 9.18H21.5875ZM29.7472 15.5H26.7672V4.98H29.7472V15.5ZM30.0272 1.94C30.0272 2.48667 29.8472 2.92 29.4872 3.24C29.1405 3.54667 28.7272 3.7 28.2472 3.7C27.7672 3.7 27.3472 3.54667 26.9872 3.24C26.6405 2.92 26.4672 2.48667 26.4672 1.94C26.4672 1.39333 26.6405 0.966666 26.9872 0.659999C27.3472 0.339999 27.7672 0.179999 28.2472 0.179999C28.7272 0.179999 29.1405 0.339999 29.4872 0.659999C29.8472 0.966666 30.0272 1.39333 30.0272 1.94ZM37.5531 15.5V1.64H46.9131V4.26H40.6731V6.98H46.2131V9.54H40.6731V12.88H47.3731V15.5H37.5531ZM54.0917 8.18L56.1717 4.98H59.2517L55.6517 10.04C56.4517 11.04 57.1784 12.0133 57.8317 12.96C58.4851 13.9067 59.0051 14.7533 59.3917 15.5H56.1917C56.0851 15.3 55.9517 15.0533 55.7917 14.76C55.6317 14.4533 55.4517 14.14 55.2517 13.82C55.0517 13.4867 54.8384 13.16 54.6117 12.84C54.3984 12.5067 54.1851 12.2067 53.9717 11.94C53.7717 12.1933 53.5651 12.4733 53.3517 12.78C53.1517 13.0867 52.9584 13.4 52.7717 13.72C52.5851 14.0267 52.3984 14.3333 52.2117 14.64C52.0384 14.9467 51.8851 15.2333 51.7517 15.5H48.7117C48.8717 15.1667 49.0917 14.7733 49.3717 14.32C49.6517 13.8667 49.9517 13.4 50.2717 12.92C50.6051 12.4267 50.9517 11.94 51.3117 11.46C51.6717 10.9667 52.0251 10.5067 52.3717 10.08C51.7717 9.24 51.1717 8.39333 50.5717 7.54C49.9717 6.67333 49.3784 5.82 48.7917 4.98H52.0117L54.0917 8.18ZM67.7259 10.32C67.7259 9.4 67.5193 8.66667 67.1059 8.12C66.6926 7.56 66.0793 7.28 65.2659 7.28C64.9993 7.28 64.7526 7.29333 64.5259 7.32C64.2993 7.33333 64.1126 7.35333 63.9659 7.38V12.76C64.1526 12.88 64.3926 12.98 64.6859 13.06C64.9926 13.14 65.2993 13.18 65.6059 13.18C67.0193 13.18 67.7259 12.2267 67.7259 10.32ZM70.7659 10.24C70.7659 11.0533 70.6659 11.7933 70.4659 12.46C70.2659 13.1267 69.9726 13.7 69.5859 14.18C69.1993 14.66 68.7193 15.0333 68.1459 15.3C67.5726 15.5667 66.9126 15.7 66.1659 15.7C65.7526 15.7 65.3659 15.66 65.0059 15.58C64.6459 15.5 64.2993 15.3867 63.9659 15.24V19.2H60.9859V5.34C61.2526 5.26 61.5593 5.18667 61.9059 5.12C62.2526 5.04 62.6126 4.97333 62.9859 4.92C63.3726 4.86667 63.7593 4.82667 64.1459 4.8C64.5459 4.76 64.9259 4.74 65.2859 4.74C66.1526 4.74 66.9259 4.87333 67.6059 5.14C68.2859 5.39333 68.8593 5.76 69.3259 6.24C69.7926 6.70667 70.1459 7.28 70.3859 7.96C70.6393 8.64 70.7659 9.4 70.7659 10.24ZM72.5563 10.32C72.5563 9.38667 72.6963 8.57333 72.9762 7.88C73.2696 7.17333 73.6496 6.58667 74.1163 6.12C74.5829 5.65333 75.1163 5.3 75.7163 5.06C76.3296 4.82 76.9563 4.7 77.5963 4.7C79.0896 4.7 80.2696 5.16 81.1363 6.08C82.0029 6.98667 82.4363 8.32667 82.4363 10.1C82.4363 10.2733 82.4296 10.4667 82.4163 10.68C82.4029 10.88 82.3896 11.06 82.3763 11.22H75.6163C75.6829 11.8333 75.9696 12.32 76.4763 12.68C76.9829 13.04 77.6629 13.22 78.5163 13.22C79.0629 13.22 79.5963 13.1733 80.1163 13.08C80.6496 12.9733 81.0829 12.8467 81.4163 12.7L81.8163 15.12C81.6563 15.2 81.4429 15.28 81.1763 15.36C80.9096 15.44 80.6096 15.5067 80.2763 15.56C79.9563 15.6267 79.6096 15.68 79.2363 15.72C78.8629 15.76 78.4896 15.78 78.1163 15.78C77.1696 15.78 76.3429 15.64 75.6363 15.36C74.9429 15.08 74.3629 14.7 73.8963 14.22C73.4429 13.7267 73.1029 13.1467 72.8763 12.48C72.6629 11.8133 72.5563 11.0933 72.5563 10.32ZM79.5563 9.18C79.5429 8.92667 79.4963 8.68 79.4163 8.44C79.3496 8.2 79.2363 7.98667 79.0763 7.8C78.9296 7.61333 78.7363 7.46 78.4963 7.34C78.2696 7.22 77.9829 7.16 77.6363 7.16C77.3029 7.16 77.0163 7.22 76.7763 7.34C76.5363 7.44667 76.3363 7.59333 76.1763 7.78C76.0163 7.96667 75.8896 8.18667 75.7963 8.44C75.7163 8.68 75.6563 8.92667 75.6163 9.18H79.5563ZM91.0759 7.62C90.8093 7.55333 90.4959 7.48667 90.1359 7.42C89.7759 7.34 89.3893 7.3 88.9759 7.3C88.7893 7.3 88.5626 7.32 88.2959 7.36C88.0426 7.38667 87.8493 7.42 87.7159 7.46V15.5H84.7359V5.54C85.2693 5.35333 85.8959 5.18 86.6159 5.02C87.3493 4.84667 88.1626 4.76 89.0559 4.76C89.2159 4.76 89.4093 4.77333 89.6359 4.8C89.8626 4.81333 90.0893 4.84 90.3159 4.88C90.5426 4.90667 90.7693 4.94667 90.9959 5C91.2226 5.04 91.4159 5.09333 91.5759 5.16L91.0759 7.62ZM93.0734 2.36L96.0534 1.88V4.98H99.6334V7.46H96.0534V11.16C96.0534 11.7867 96.1601 12.2867 96.3734 12.66C96.6001 13.0333 97.0468 13.22 97.7134 13.22C98.0334 13.22 98.3601 13.1933 98.6934 13.14C99.0401 13.0733 99.3534 12.9867 99.6334 12.88L100.053 15.2C99.6934 15.3467 99.2934 15.4733 98.8534 15.58C98.4134 15.6867 97.8734 15.74 97.2334 15.74C96.4201 15.74 95.7468 15.6333 95.2134 15.42C94.6801 15.1933 94.2534 14.8867 93.9334 14.5C93.6134 14.1 93.3868 13.62 93.2534 13.06C93.1334 12.5 93.0734 11.88 93.0734 11.2V2.36Z" fill="#1A1A1A"/>
</svg>
