<svg width="24" height="24" viewBox="0 0 24 24" fill="none" xmlns="http://www.w3.org/2000/svg">
<path fill-rule="evenodd" clip-rule="evenodd" d="M3.51562 2.33301C2.96334 2.33301 2.51562 2.78072 2.51562 3.33301C2.51562 3.88529 2.96334 4.33301 3.51562 4.33301C3.60359 4.33301 3.68891 4.32165 3.77019 4.30032C3.78097 4.29668 3.79186 4.29321 3.80284 4.28992C3.81393 4.28659 3.82503 4.28346 3.83614 4.28054C4.23122 4.14694 4.51562 3.77319 4.51562 3.33301C4.51562 2.78072 4.06791 2.33301 3.51562 2.33301ZM0.515625 3.33301C0.515625 4.94132 1.78122 6.25404 3.37083 6.32957L4.56701 10.3159C2.17439 11.4287 0.515625 13.8538 0.515625 16.6664C0.515625 20.5324 3.64963 23.6664 7.51562 23.6664C10.328 23.6664 12.753 22.0079 13.8659 19.6156L17.8524 20.8112C17.9279 22.4008 19.2406 23.6664 20.8489 23.6664C22.5058 23.6664 23.8489 22.3233 23.8489 20.6664C23.8489 19.0096 22.5058 17.6664 20.8489 17.6664C19.8544 17.6664 18.9729 18.1503 18.4271 18.8956L14.4399 17.6997C14.4898 17.3625 14.5156 17.0175 14.5156 16.6664C14.5156 15.0941 13.9972 13.6428 13.122 12.4742L19.5556 6.04067C19.9472 6.22807 20.3858 6.33301 20.8489 6.33301C22.5058 6.33301 23.8489 4.98986 23.8489 3.33301C23.8489 1.67615 22.5058 0.333008 20.8489 0.333008C19.1921 0.333008 17.8489 1.67615 17.8489 3.33301C17.8489 3.79618 17.9539 4.23484 18.1413 4.62649L11.7078 11.06C10.5392 10.1848 9.08796 9.66641 7.51562 9.66641C7.16476 9.66641 6.81993 9.69222 6.48292 9.74205L5.28648 5.75485C6.0317 5.20901 6.51562 4.32752 6.51562 3.33301C6.51562 1.67615 5.17248 0.333008 3.51562 0.333008C1.85877 0.333008 0.515625 1.67615 0.515625 3.33301ZM20.1938 4.08851C20.1784 4.0708 20.1622 4.05349 20.1454 4.03664C20.1285 4.01978 20.1112 4.00364 20.0935 3.98823C19.9411 3.81274 19.8489 3.58364 19.8489 3.33301C19.8489 2.78072 20.2966 2.33301 20.8489 2.33301C21.4012 2.33301 21.8489 2.78072 21.8489 3.33301C21.8489 3.88529 21.4012 4.33301 20.8489 4.33301C20.5983 4.33301 20.3692 4.24082 20.1938 4.08851ZM19.8489 20.6664C19.8489 20.5786 19.8603 20.4934 19.8815 20.4122C19.8852 20.4012 19.8887 20.3902 19.8921 20.379C19.8954 20.3678 19.8986 20.3567 19.9015 20.3455C20.0352 19.9506 20.4089 19.6664 20.8489 19.6664C21.4012 19.6664 21.8489 20.1141 21.8489 20.6664C21.8489 21.2187 21.4012 21.6664 20.8489 21.6664C20.2966 21.6664 19.8489 21.2187 19.8489 20.6664ZM2.51562 16.6664C2.51562 13.905 4.7542 11.6664 7.51562 11.6664C10.277 11.6664 12.5156 13.905 12.5156 16.6664C12.5156 19.4278 10.277 21.6664 7.51562 21.6664C4.7542 21.6664 2.51562 19.4278 2.51562 16.6664Z" fill="#222222"/>
</svg>
