<svg width="25" height="24" viewBox="0 0 25 24" fill="none" xmlns="http://www.w3.org/2000/svg">
<g clip-path="url(#clip0_436_3070)">
<path d="M19.9725 21.9999H11.1461L10.3785 19.1448C7.69154 19.1448 6.5402 19.4934 5.00509 14.4969C5.00509 14.4969 2.31914 13.7831 3.47047 12.3555C4.62181 10.9279 5.77315 9.50859 5.77315 9.50859C5.77315 9.50859 5.38937 2.37068 12.6812 2.01378C19.973 1.65688 21.1146 8.09192 20.6836 10.4998C20.2525 12.9077 18.4379 17.3603 18.4379 17.3603L19.9725 21.9999Z" stroke="#C61826" strokeWidth="1.5" strokeLinejoin="round"/>
<path d="M9.18359 8.48013C9.31057 7.5155 9.78626 6.63002 10.5216 5.98944C11.257 5.34887 12.2015 4.99711 13.1786 5.00002C14.1556 5.00293 15.098 5.3603 15.8295 6.00525C16.561 6.65019 17.0314 7.53849 17.1526 8.50386C17.2737 9.46923 17.0375 10.4455 16.4879 11.2499C15.9384 12.0543 15.1132 12.6317 14.167 12.874C13.2208 13.1163 12.2183 13.0068 11.3472 12.5662C10.4761 12.1256 9.79619 11.384 9.43466 10.4801M9.18359 12.9801V10.4801H11.6942" stroke="#C61826" strokeWidth="1.5" strokeLinecap="round" strokeLinejoin="round"/>
</g>
<defs>
<clipPath id="clip0_436_3070">
<rect width="24" height="24" fill="white" transform="translate(0.183594)"/>
</clipPath>
</defs>
</svg>
