<svg width="33" height="32" viewBox="0 0 33 32" fill="none" xmlns="http://www.w3.org/2000/svg">
<g clip-path="url(#clip0_414_11916)">
<path fill-rule="evenodd" clip-rule="evenodd" d="M16.1836 3.00016C16.0089 3.00016 15.8349 3.00361 15.6619 3.01044C15.5291 2.99106 15.3945 2.99889 15.2664 3.03202C8.51467 3.50262 3.18359 9.12882 3.18359 16.0002C3.18359 22.8716 8.51484 28.4979 15.2667 28.9683C15.3946 29.0014 15.529 29.0092 15.6615 28.9899C15.8347 28.9967 16.0087 29.0002 16.1836 29.0002C16.3584 29.0002 16.5324 28.9967 16.7056 28.9899C16.8382 29.0092 16.9725 29.0014 17.1004 28.9683C23.8523 28.4979 29.1836 22.8716 29.1836 16.0002C29.1836 9.12879 23.8525 3.50258 17.1007 3.03201C16.9726 2.99889 16.8381 2.99106 16.7053 3.01044C16.5322 3.00361 16.3583 3.00016 16.1836 3.00016ZM16.2876 5.00064C16.253 5.00032 16.2183 5.00016 16.1836 5.00016C16.1489 5.00016 16.1142 5.00033 16.0795 5.00065C14.9747 6.87564 14.163 8.89889 13.6646 11.0002H18.7025C18.2041 8.89889 17.3924 6.87564 16.2876 5.00064ZM19.0786 13.0002H13.2885C13.1501 13.9905 13.0798 14.9928 13.0798 16.0001C13.0798 17.0075 13.1501 18.0098 13.2885 19.0002H19.0786C19.2171 18.0098 19.2873 17.0075 19.2873 16.0001C19.2873 14.9928 19.2171 13.9905 19.0786 13.0002ZM21.0964 19.0002C21.2231 18.0086 21.2873 17.0067 21.2873 16.0001C21.2873 14.9936 21.2231 13.9917 21.0964 13.0002H26.7695C27.0393 13.9538 27.1836 14.9601 27.1836 16.0002C27.1836 17.0402 27.0393 18.0465 26.7695 19.0002H21.0964ZM18.7025 21.0002H13.6647C14.163 23.1014 14.9747 25.1247 16.0796 26.9997C16.1142 27 16.1489 27.0002 16.1836 27.0002C16.2183 27.0002 16.2529 27 16.2876 26.9997C17.3924 25.1247 18.2041 23.1014 18.7025 21.0002ZM18.7282 26.7044C19.6463 24.894 20.3259 22.9765 20.7531 21.0002H25.9842C24.5365 23.832 21.8976 25.9538 18.7282 26.7044ZM20.7531 11.0002C20.3259 9.02386 19.6464 7.10638 18.7283 5.29598C21.8976 6.04658 24.5365 8.16829 25.9842 11.0002H20.7531ZM13.6389 26.7043C12.7208 24.8939 12.0412 22.9765 11.614 21.0002H6.38301C7.83064 23.832 10.4696 25.9537 13.6389 26.7043ZM11.0798 16.0001C11.0798 14.9936 11.144 13.9917 11.2707 13.0002H5.59766C5.32793 13.9538 5.18359 14.9601 5.18359 16.0002C5.18359 17.0402 5.32793 18.0465 5.59766 19.0002H11.2707C11.144 18.0086 11.0798 17.0067 11.0798 16.0001ZM11.614 11.0002C12.0412 9.02387 12.7207 7.10639 13.6388 5.296C10.4696 6.04661 7.83064 8.16832 6.38301 11.0002H11.614Z" fill="#6A6D71"/>
</g>
<defs>
<clipPath id="clip0_414_11916">
<rect width="32" height="32" fill="white" transform="translate(0.183594)"/>
</clipPath>
</defs>
</svg>
