<svg width="33" height="32" viewBox="0 0 33 32" fill="none" xmlns="http://www.w3.org/2000/svg">
<g clip-path="url(#clip0_414_11960)">
<path fill-rule="evenodd" clip-rule="evenodd" d="M9.51562 7.66699C8.71998 7.66699 7.95691 7.98306 7.3943 8.54567C6.8317 9.10828 6.51562 9.87134 6.51562 10.667V25.5861L10.1419 21.9599C10.3294 21.7724 10.5837 21.667 10.849 21.667H22.849C23.6446 21.667 24.4077 21.3509 24.9703 20.7883C25.5329 20.2257 25.849 19.4626 25.849 18.667V10.667C25.849 9.87134 25.5329 9.10828 24.9703 8.54567C24.4077 7.98306 23.6446 7.66699 22.849 7.66699H9.51562ZM5.98009 7.13146C6.91777 6.19378 8.18954 5.66699 9.51562 5.66699H22.849C24.175 5.66699 25.4468 6.19378 26.3845 7.13146C27.3222 8.06914 27.849 9.34091 27.849 10.667V18.667C27.849 19.9931 27.3222 21.2648 26.3845 22.2025C25.4468 23.1402 24.175 23.667 22.849 23.667H11.2632L6.22273 28.7074C5.93673 28.9934 5.50662 29.079 5.13294 28.9242C4.75927 28.7694 4.51562 28.4048 4.51562 28.0003V10.667C4.51562 9.34091 5.04241 8.06914 5.98009 7.13146ZM9.84896 12.0003C9.84896 11.448 10.2967 11.0003 10.849 11.0003H21.5156C22.0679 11.0003 22.5156 11.448 22.5156 12.0003C22.5156 12.5526 22.0679 13.0003 21.5156 13.0003H10.849C10.2967 13.0003 9.84896 12.5526 9.84896 12.0003ZM10.849 16.3337C10.2967 16.3337 9.84896 16.7814 9.84896 17.3337C9.84896 17.8859 10.2967 18.3337 10.849 18.3337H18.849C19.4012 18.3337 19.849 17.8859 19.849 17.3337C19.849 16.7814 19.4012 16.3337 18.849 16.3337H10.849Z" fill="#1A1A1A"/>
</g>
<defs>
<clipPath id="clip0_414_11960">
<rect width="32" height="32" fill="white" transform="translate(0.183594)"/>
</clipPath>
</defs>
</svg>
