<svg width="25" height="24" viewBox="0 0 25 24" fill="none" xmlns="http://www.w3.org/2000/svg">
<g clip-path="url(#clip0_442_2349)">
<path fill-rule="evenodd" clip-rule="evenodd" d="M12.9846 4.0685C12.9253 4.47845 12.5449 4.76272 12.135 4.70345C11.725 4.64417 11.4407 4.26378 11.5 3.85383L11.5014 3.84394C11.5607 3.43399 11.9411 3.14971 12.351 3.20899C12.761 3.26827 13.0453 3.64865 12.986 4.0586L12.9846 4.0685ZM8.4367 18.2579C10.1064 19.2282 12.0931 19.4954 13.9598 19.0009C15.8266 18.5063 17.4204 17.2905 18.3907 15.6208C19.361 13.9511 19.6282 11.9644 19.1337 10.0977C18.7382 8.60467 17.8812 7.28626 16.6998 6.32179L16.2359 9.52989C16.1766 9.93984 15.7962 10.2241 15.3863 10.1648C14.9763 10.1056 14.692 9.72518 14.7513 9.31523L15.3857 4.92783C15.3871 4.91646 15.3887 4.9051 15.3907 4.89376L15.4669 4.36669C15.5261 3.95674 15.9065 3.67247 16.3165 3.73175L21.265 4.44729C21.675 4.50657 21.9592 4.88695 21.9 5.2969C21.8407 5.70685 21.4603 5.99113 21.0504 5.93185L18.0365 5.49606C19.2611 6.62124 20.1511 8.08082 20.5837 9.71352C21.1801 11.9648 20.8578 14.3608 19.6876 16.3745C18.5174 18.3881 16.5953 19.8544 14.344 20.4509C12.0927 21.0473 9.69668 20.725 7.68304 19.5548C7.3249 19.3467 7.20329 18.8876 7.41141 18.5295C7.61953 18.1714 8.07857 18.0498 8.4367 18.2579ZM5.84101 15.9484C5.78173 16.3583 5.40135 16.6426 4.9914 16.5833C4.58145 16.5241 4.29717 16.1437 4.35645 15.7337L4.35788 15.7238C4.41716 15.3139 4.79754 15.0296 5.20749 15.0889C5.61744 15.1481 5.90172 15.5285 5.84244 15.9385L5.84101 15.9484ZM3.98652 12.5579C4.39647 12.6172 4.77685 12.3329 4.83613 11.923L4.83756 11.9131C4.89684 11.5031 4.61256 11.1228 4.20261 11.0635C3.79266 11.0042 3.41228 11.2885 3.353 11.6984L3.35157 11.7083C3.29229 12.1183 3.57657 12.4987 3.98652 12.5579ZM5.98749 7.94692C5.92822 8.35687 5.54783 8.64114 5.13788 8.58186C4.72793 8.52259 4.44366 8.1422 4.50293 7.73225L4.50437 7.72236C4.56364 7.31241 4.94403 7.02813 5.35398 7.08741C5.76393 7.14669 6.0482 7.52707 5.98893 7.93702L5.98749 7.94692ZM8.10956 5.7076C8.51951 5.76687 8.8999 5.4826 8.95917 5.07265L8.96061 5.06275C9.01988 4.6528 8.73561 4.27242 8.32566 4.21314C7.91571 4.15386 7.53532 4.43814 7.47604 4.84809L7.47461 4.85798C7.41534 5.26793 7.69961 5.64832 8.10956 5.7076Z" fill="#6A6D71"/>
</g>
<defs>
<clipPath id="clip0_442_2349">
<rect width="24" height="24" fill="white" transform="translate(0.183594)"/>
</clipPath>
</defs>
</svg>
