<svg width="24" height="24" viewBox="0 0 24 24" fill="none" xmlns="http://www.w3.org/2000/svg">
<g clip-path="url(#clip0_442_2153)">
<path fill-rule="evenodd" clip-rule="evenodd" d="M8 3.75C6.20507 3.75 4.75 5.20507 4.75 7C4.75 8.79493 6.20507 10.25 8 10.25C9.79493 10.25 11.25 8.79493 11.25 7C11.25 5.20507 9.79493 3.75 8 3.75ZM3.25 7C3.25 4.37665 5.37665 2.25 8 2.25C10.6234 2.25 12.75 4.37665 12.75 7C12.75 9.62335 10.6234 11.75 8 11.75C5.37665 11.75 3.25 9.62335 3.25 7ZM6 15.75C5.13805 15.75 4.3114 16.0924 3.7019 16.7019C3.09241 17.3114 2.75 18.138 2.75 19V21C2.75 21.4142 2.41421 21.75 2 21.75C1.58579 21.75 1.25 21.4142 1.25 21V19C1.25 17.7402 1.75044 16.532 2.64124 15.6412C3.53204 14.7504 4.74022 14.25 6 14.25H10C11.2598 14.25 12.468 14.7504 13.3588 15.6412C14.2496 16.532 14.75 17.7402 14.75 19V21C14.75 21.4142 14.4142 21.75 14 21.75C13.5858 21.75 13.25 21.4142 13.25 21V19C13.25 18.138 12.9076 17.3114 12.2981 16.7019C11.6886 16.0924 10.862 15.75 10 15.75H6ZM18.75 8C18.75 7.58579 18.4142 7.25 18 7.25C17.5858 7.25 17.25 7.58579 17.25 8V10.25H15C14.5858 10.25 14.25 10.5858 14.25 11C14.25 11.4142 14.5858 11.75 15 11.75H17.25V14C17.25 14.4142 17.5858 14.75 18 14.75C18.4142 14.75 18.75 14.4142 18.75 14V11.75H21C21.4142 11.75 21.75 11.4142 21.75 11C21.75 10.5858 21.4142 10.25 21 10.25H18.75V8Z" fill="#C61826"/>
</g>
<defs>
<clipPath id="clip0_442_2153">
<rect width="24" height="24" fill="white"/>
</clipPath>
</defs>
</svg>
