<svg width="25" height="24" viewBox="0 0 25 24" fill="none" xmlns="http://www.w3.org/2000/svg">
<g clip-path="url(#clip0_416_39818)">
<path fill-rule="evenodd" clip-rule="evenodd" d="M10.1836 3.75C6.73181 3.75 3.93359 6.54822 3.93359 10C3.93359 13.4518 6.73181 16.25 10.1836 16.25C13.6354 16.25 16.4336 13.4518 16.4336 10C16.4336 6.54822 13.6354 3.75 10.1836 3.75ZM2.43359 10C2.43359 5.71979 5.90339 2.25 10.1836 2.25C14.4638 2.25 17.9336 5.71979 17.9336 10C17.9336 14.2802 14.4638 17.75 10.1836 17.75C5.90339 17.75 2.43359 14.2802 2.43359 10Z" fill="#fff"/>
<path fill-rule="evenodd" clip-rule="evenodd" d="M14.6533 14.4697C14.9462 14.1768 15.421 14.1768 15.7139 14.4697L21.7139 20.4697C22.0068 20.7626 22.0068 21.2374 21.7139 21.5303C21.421 21.8232 20.9462 21.8232 20.6533 21.5303L14.6533 15.5303C14.3604 15.2374 14.3604 14.7626 14.6533 14.4697Z" fill="#fff"/>
</g>
<defs>
<clipPath id="clip0_416_39818">
<rect width="24" height="24" fill="white" transform="translate(0.183594)"/>
</clipPath>
</defs>
</svg>
