<svg width="33" height="32" viewBox="0 0 33 32" fill="none" xmlns="http://www.w3.org/2000/svg">
<g clip-path="url(#clip0_414_11944)">
<path fill-rule="evenodd" clip-rule="evenodd" d="M7.51562 6.33301C6.96334 6.33301 6.51562 6.78072 6.51562 7.33301C6.51562 7.88529 6.96334 8.33301 7.51562 8.33301C7.60359 8.33301 7.68891 8.32165 7.77019 8.30032C7.78097 8.29668 7.79186 8.29321 7.80284 8.28992C7.81393 8.28659 7.82503 8.28346 7.83614 8.28054C8.23122 8.14694 8.51562 7.77319 8.51562 7.33301C8.51562 6.78072 8.06791 6.33301 7.51562 6.33301ZM4.51562 7.33301C4.51562 8.94132 5.78122 10.254 7.37083 10.3296L8.56701 14.3159C6.17439 15.4287 4.51562 17.8538 4.51562 20.6664C4.51562 24.5324 7.64963 27.6664 11.5156 27.6664C14.328 27.6664 16.753 26.0079 17.8659 23.6156L21.8524 24.8112C21.9279 26.4008 23.2406 27.6664 24.8489 27.6664C26.5058 27.6664 27.8489 26.3233 27.8489 24.6664C27.8489 23.0096 26.5058 21.6664 24.8489 21.6664C23.8544 21.6664 22.9729 22.1503 22.4271 22.8956L18.4399 21.6997C18.4898 21.3625 18.5156 21.0175 18.5156 20.6664C18.5156 19.0941 17.9972 17.6428 17.122 16.4742L23.5556 10.0407C23.9472 10.2281 24.3858 10.333 24.8489 10.333C26.5058 10.333 27.8489 8.98986 27.8489 7.33301C27.8489 5.67615 26.5058 4.33301 24.8489 4.33301C23.1921 4.33301 21.8489 5.67615 21.8489 7.33301C21.8489 7.79618 21.9539 8.23484 22.1413 8.62649L15.7078 15.06C14.5392 14.1848 13.088 13.6664 11.5156 13.6664C11.1648 13.6664 10.8199 13.6922 10.4829 13.7421L9.28648 9.75485C10.0317 9.20901 10.5156 8.32752 10.5156 7.33301C10.5156 5.67615 9.17248 4.33301 7.51562 4.33301C5.85877 4.33301 4.51562 5.67615 4.51562 7.33301ZM24.1938 8.08852C24.1784 8.0708 24.1622 8.0535 24.1454 8.03664C24.1285 8.01977 24.1112 8.00363 24.0935 7.98822C23.9411 7.81273 23.8489 7.58363 23.8489 7.33301C23.8489 6.78072 24.2966 6.33301 24.8489 6.33301C25.4012 6.33301 25.8489 6.78072 25.8489 7.33301C25.8489 7.88529 25.4012 8.33301 24.8489 8.33301C24.5983 8.33301 24.3692 8.24082 24.1938 8.08852ZM23.8489 24.6664C23.8489 24.5786 23.8603 24.4934 23.8815 24.4122C23.8852 24.4012 23.8887 24.3902 23.8921 24.379C23.8954 24.3679 23.8986 24.3567 23.9015 24.3455C24.0352 23.9506 24.4089 23.6664 24.8489 23.6664C25.4012 23.6664 25.8489 24.1141 25.8489 24.6664C25.8489 25.2187 25.4012 25.6664 24.8489 25.6664C24.2966 25.6664 23.8489 25.2187 23.8489 24.6664ZM6.51562 20.6664C6.51562 17.905 8.7542 15.6664 11.5156 15.6664C14.277 15.6664 16.5156 17.905 16.5156 20.6664C16.5156 23.4278 14.277 25.6664 11.5156 25.6664C8.7542 25.6664 6.51562 23.4278 6.51562 20.6664Z" fill="#1A1A1A"/>
</g>
<defs>
<clipPath id="clip0_414_11944">
<rect width="32" height="32" fill="white" transform="translate(0.183594)"/>
</clipPath>
</defs>
</svg>
