<svg width="20" height="21" viewBox="0 0 20 21" fill="none" xmlns="http://www.w3.org/2000/svg">
<path fill-rule="evenodd" clip-rule="evenodd" d="M10 2.25C5.44365 2.25 1.75 5.94365 1.75 10.5C1.75 15.0563 5.44365 18.75 10 18.75C14.5563 18.75 18.25 15.0563 18.25 10.5C18.25 5.94365 14.5563 2.25 10 2.25ZM0.25 10.5C0.25 5.11522 4.61522 0.75 10 0.75C15.3848 0.75 19.75 5.11522 19.75 10.5C19.75 15.8848 15.3848 20.25 10 20.25C4.61522 20.25 0.25 15.8848 0.25 10.5ZM10 4.75C9.58579 4.75 9.25 5.08579 9.25 5.5V15.5C9.25 15.9142 9.58579 16.25 10 16.25C11.525 16.25 12.9875 15.6442 14.0659 14.5659C15.1442 13.4875 15.75 12.025 15.75 10.5C15.75 8.97501 15.1442 7.51247 14.0659 6.43414C12.9875 5.3558 11.525 4.75 10 4.75Z" fill="#1A1A1A"/>
</svg>
