<svg width="5" height="24" viewBox="0 0 5 24" fill="none" xmlns="http://www.w3.org/2000/svg">
<path d="M0.183594 2.875C0.183594 3.40543 0.394308 3.91414 0.769381 4.28921C1.14445 4.66429 1.65316 4.875 2.18359 4.875C2.71403 4.875 3.22273 4.66429 3.59781 4.28921C3.97288 3.91414 4.18359 3.40543 4.18359 2.875C4.18359 2.34457 3.97288 1.83586 3.59781 1.46079C3.22273 1.08571 2.71403 0.875 2.18359 0.875C1.65316 0.875 1.14445 1.08571 0.769381 1.46079C0.394308 1.83586 0.183594 2.34457 0.183594 2.875ZM3.18359 8.125H1.18359C1.04609 8.125 0.933594 8.2375 0.933594 8.375V22.875C0.933594 23.0125 1.04609 23.125 1.18359 23.125H3.18359C3.32109 23.125 3.43359 23.0125 3.43359 22.875V8.375C3.43359 8.2375 3.32109 8.125 3.18359 8.125Z" fill="#222222"/>
</svg>
