<svg width="22" height="21" viewBox="0 0 22 21" fill="none" xmlns="http://www.w3.org/2000/svg">
<path d="M11.1836 0C5.38516 0 0.683594 4.70156 0.683594 10.5C0.683594 16.2984 5.38516 21 11.1836 21C16.982 21 21.6836 16.2984 21.6836 10.5C21.6836 4.70156 16.982 0 11.1836 0ZM11.1836 19.2188C6.36953 19.2188 2.46484 15.3141 2.46484 10.5C2.46484 5.68594 6.36953 1.78125 11.1836 1.78125C15.9977 1.78125 19.9023 5.68594 19.9023 10.5C19.9023 15.3141 15.9977 19.2188 11.1836 19.2188Z" fill="#C61826"/>
<path d="M10.0586 6.375C10.0586 6.67337 10.1771 6.95952 10.3881 7.1705C10.5991 7.38147 10.8852 7.5 11.1836 7.5C11.482 7.5 11.7681 7.38147 11.9791 7.1705C12.1901 6.95952 12.3086 6.67337 12.3086 6.375C12.3086 6.07663 12.1901 5.79048 11.9791 5.5795C11.7681 5.36853 11.482 5.25 11.1836 5.25C10.8852 5.25 10.5991 5.36853 10.3881 5.5795C10.1771 5.79048 10.0586 6.07663 10.0586 6.375ZM11.7461 9H10.6211C10.518 9 10.4336 9.08438 10.4336 9.1875V15.5625C10.4336 15.6656 10.518 15.75 10.6211 15.75H11.7461C11.8492 15.75 11.9336 15.6656 11.9336 15.5625V9.1875C11.9336 9.08438 11.8492 9 11.7461 9Z" fill="#C61826"/>
</svg>
