<svg width="20" height="13" viewBox="0 0 20 13" fill="none" xmlns="http://www.w3.org/2000/svg">
<g clip-path="url(#clip0_2265_21366)">
<path d="M20.0004 0.5H0V12.5002H20.0004V0.5Z" fill="#000066"/>
<path d="M0 0.5V1.84167L17.7644 12.5003H20.0004V11.1587L2.23604 0.50004L0 0.5ZM20.0004 0.5V1.84163L2.23604 12.5002H0V11.1586L17.7644 0.5H20.0004Z" fill="white"/>
<path d="M8.3335 0.5V12.5002H11.6669V0.5H8.3335ZM0 4.50008V8.50016H20.0004V4.50008H0Z" fill="white"/>
<path d="M0 5.3001V7.70014H20.0004V5.3001H0ZM9.00018 0.5V12.5002H11.0002V0.5H9.00018Z" fill="#CC0000"/>
<path d="M0 12.5002L6.6668 8.50016H8.1575L1.4907 12.5002H0ZM0 0.5L6.6668 4.50008H5.1761L0 1.39446L0 0.5ZM11.8429 4.50008L18.5097 0.5H20.0004L13.3336 4.50008H11.8429ZM20.0004 12.5002L13.3336 8.50016H14.8243L20.0004 11.6058V12.5002Z" fill="#CC0000"/>
</g>
<defs>
<clipPath id="clip0_2265_21366">
<rect width="20" height="12" fill="white" transform="translate(0 0.5)"/>
</clipPath>
</defs>
</svg>
