<svg width="14" height="20" viewBox="0 0 14 20" fill="none" xmlns="http://www.w3.org/2000/svg">
<path fill-rule="evenodd" clip-rule="evenodd" d="M3.75 5C3.75 3.20507 5.20507 1.75 7 1.75C8.79493 1.75 10.25 3.20507 10.25 5C10.25 6.79493 8.79493 8.25 7 8.25C5.20507 8.25 3.75 6.79493 3.75 5ZM7 0.25C4.37665 0.25 2.25 2.37665 2.25 5C2.25 7.62335 4.37665 9.75 7 9.75C9.62335 9.75 11.75 7.62335 11.75 5C11.75 2.37665 9.62335 0.25 7 0.25ZM2.7019 14.7019C3.3114 14.0924 4.13805 13.75 5 13.75H9C9.86195 13.75 10.6886 14.0924 11.2981 14.7019C11.9076 15.3114 12.25 16.138 12.25 17V19C12.25 19.4142 12.5858 19.75 13 19.75C13.4142 19.75 13.75 19.4142 13.75 19V17C13.75 15.7402 13.2496 14.532 12.3588 13.6412C11.468 12.7504 10.2598 12.25 9 12.25H5C3.74022 12.25 2.53204 12.7504 1.64124 13.6412C0.750445 14.532 0.25 15.7402 0.25 17V19C0.25 19.4142 0.585786 19.75 1 19.75C1.41421 19.75 1.75 19.4142 1.75 19V17C1.75 16.138 2.09241 15.3114 2.7019 14.7019Z" fill="#1A1A1A"/>
</svg>
