<?xml version="1.0" standalone="no"?>
<!DOCTYPE svg PUBLIC "-//W3C//DTD SVG 20010904//EN"
 "http://www.w3.org/TR/2001/REC-SVG-20010904/DTD/svg10.dtd">
<svg version="1.0" xmlns="http://www.w3.org/2000/svg"
 width="261.000000pt" height="261.000000pt" viewBox="0 0 261.000000 261.000000"
 preserveAspectRatio="xMidYMid meet">
<metadata>
Created by potrace 1.14, written by Peter Selinger 2001-2017
</metadata>
<g transform="translate(0.000000,261.000000) scale(0.100000,-0.100000)"
fill="#000000" stroke="none">
<path d="M1150 2603 c-109 -17 -254 -53 -320 -80 -8 -4 -17 -7 -20 -8 -3 0
-39 -17 -80 -37 -197 -95 -383 -258 -507 -443 -156 -233 -225 -470 -218 -755
2 -80 6 -156 9 -170 4 -14 9 -38 12 -55 2 -16 10 -48 16 -70 6 -22 13 -48 15
-57 8 -45 80 -207 125 -281 165 -272 415 -473 708 -571 207 -69 476 -83 683
-37 259 58 470 174 649 357 200 205 317 435 363 719 13 79 14 330 1 390 -4 17
-11 55 -17 85 -29 145 -115 340 -205 467 -61 84 -54 76 -149 172 -120 123
-280 228 -444 292 -73 28 -217 68 -276 76 -43 6 -315 11 -345 6z"/>
</g>
</svg>
